<svg width="18" height="19" viewBox="0 0 18 19" fill="none" xmlns="http://www.w3.org/2000/svg">
<g clip-path="url(#clip0_542_121)">
<path d="M10.6875 6.125C11.6195 6.125 12.375 5.36948 12.375 4.4375C12.375 3.50552 11.6195 2.75 10.6875 2.75C9.75552 2.75 9 3.50552 9 4.4375C9 5.36948 9.75552 6.125 10.6875 6.125Z" stroke="#85847D" stroke-width="2" stroke-linecap="round" stroke-linejoin="round"/>
<path d="M3.9375 7.92499C3.9375 7.92499 6.1875 6.12007 9.5625 8.41718C13.1112 10.8289 15.1875 9.88319 15.1875 9.88319" stroke="#85847D" stroke-width="2" stroke-linecap="round" stroke-linejoin="round"/>
<path d="M7.77942 11.8315C9.03309 12.1015 12.375 13.1562 12.375 16.8125" stroke="#85847D" stroke-width="2" stroke-linecap="round" stroke-linejoin="round"/>
<path d="M9.45281 8.34058C9.02602 10.0091 6.94758 15.0322 2.25 14.5625" stroke="#85847D" stroke-width="2" stroke-linecap="round" stroke-linejoin="round"/>
</g>
<defs>
<clipPath id="clip0_542_121">
<rect width="18" height="18" fill="white" transform="translate(0 0.5)"/>
</clipPath>
</defs>
</svg>
