<svg width="18" height="19" viewBox="0 0 18 19" fill="none" xmlns="http://www.w3.org/2000/svg">
<path d="M9 2.46875C7.60935 2.46875 6.24993 2.88113 5.09365 3.65373C3.93737 4.42633 3.03615 5.52446 2.50398 6.80926C1.9718 8.09405 1.83255 9.5078 2.10386 10.8717C2.37516 12.2357 3.04482 13.4885 4.02816 14.4718C5.0115 15.4552 6.26435 16.1248 7.62827 16.3961C8.9922 16.6674 10.406 16.5282 11.6907 15.996C12.9755 15.4638 14.0737 14.5626 14.8463 13.4064C15.6189 12.2501 16.0313 10.8906 16.0313 9.5C16.0292 7.63582 15.2878 5.84859 13.9696 4.53042C12.6514 3.21224 10.8642 2.4708 9 2.46875ZM11.8737 12.8342L11.0517 11.7029L12.0326 8.84539L13.3636 8.41297L15.4484 10.0119C15.3704 11.0105 15.0597 11.9771 14.5413 12.8342H11.8737ZM6.12633 12.8342H3.45868C2.94027 11.9771 2.62965 11.0105 2.55164 10.0119L4.63641 8.41297L5.96743 8.84539L6.94828 11.7029L6.12633 12.8342ZM3.63446 5.89016L4.25813 7.99391L2.53125 9.31648C2.5651 8.0926 2.94785 6.90386 3.63446 5.89016ZM7.46227 11.4688L6.52289 8.73219L9 7.02852L11.4771 8.73219L10.5377 11.4688H7.46227ZM13.7419 7.99391L14.3656 5.89016C15.0522 6.90386 15.4349 8.0926 15.4688 9.31648L13.7419 7.99391ZM13.9437 5.33328L13.1899 7.87789L11.854 8.31102L9.28125 6.53984V5.14766L11.5791 3.56844C12.4921 3.96767 13.3012 4.57151 13.9437 5.33328ZM10.9364 3.32727L9 4.65898L7.0636 3.32727C8.32438 2.93266 9.67563 2.93266 10.9364 3.32727ZM6.42094 3.56844L8.71875 5.14766V6.53984L6.1425 8.31102L4.80657 7.87789L4.05633 5.33328C4.69882 4.57151 5.50787 3.96767 6.42094 3.56844ZM3.83977 13.3967H6.07078L6.85125 15.6017C5.65348 15.1769 4.60649 14.4103 3.83977 13.3967ZM7.51711 15.7972L6.58407 13.1605L7.40532 12.0312H10.5947L11.4159 13.1605L10.4829 15.7972C9.50752 16.0258 8.49248 16.0258 7.51711 15.7972ZM11.1488 15.6017L11.9292 13.3967H14.1602C13.3935 14.4103 12.3465 15.1769 11.1488 15.6017Z" fill="white"/>
</svg>
