<svg width="14" height="30" viewBox="0 0 14 30" fill="none" xmlns="http://www.w3.org/2000/svg">
<path d="M6.14501 29.1666V25.7766C4.71501 25.5922 3.48668 25.0972 2.46001 24.2916C1.43335 23.4861 0.670013 22.3716 0.170013 20.9483L1.71501 20.275C2.19613 21.5228 2.85724 22.4839 3.69835 23.1583C4.53946 23.8328 5.67946 24.1689 7.11835 24.1666C8.38501 24.1666 9.54279 23.8511 10.5917 23.22C11.6406 22.5889 12.1645 21.5711 12.1633 20.1666C12.1633 18.9811 11.7778 18.0289 11.0067 17.31C10.2345 16.5911 8.79112 15.8916 6.67668 15.2116C4.52224 14.5261 3.00612 13.7428 2.12835 12.8616C1.25057 11.9794 0.81168 10.8311 0.81168 9.41665C0.81168 7.86776 1.40557 6.63054 2.59335 5.70498C3.78112 4.78054 4.96446 4.28053 6.14335 4.20498V0.833313H7.81001V4.20498C8.96446 4.32053 9.95557 4.64054 10.7833 5.16498C11.6111 5.68942 12.2978 6.43554 12.8433 7.40331L11.3617 8.15998C10.965 7.4422 10.4183 6.86109 9.72168 6.41665C9.02501 5.9722 8.13835 5.74998 7.06168 5.74998C5.77501 5.74998 4.68946 6.09054 3.80501 6.77165C2.92057 7.45165 2.47835 8.33331 2.47835 9.41665C2.47835 10.44 2.84112 11.2689 3.56668 11.9033C4.29335 12.5389 5.7489 13.2016 7.93335 13.8916C9.95557 14.5316 11.4445 15.3544 12.4 16.36C13.3533 17.3655 13.83 18.6278 13.83 20.1466C13.83 21.82 13.2411 23.1494 12.0633 24.135C10.8856 25.1205 9.46779 25.6739 7.81001 25.795V29.1666H6.14501Z" fill="#681F00"/>
</svg>
