<svg width="28" height="28" viewBox="0 0 28 28" fill="none" xmlns="http://www.w3.org/2000/svg">
<path d="M4.65381 3.92349C4.72773 3.47832 4.95754 3.07395 5.30218 2.78264C5.64681 2.49133 6.08381 2.33207 6.53506 2.33332C7.00406 2.33332 7.4334 2.50132 7.76706 2.77957C8.12901 2.49055 8.57847 2.33319 9.04165 2.33332C9.52348 2.33332 9.96681 2.50015 10.3162 2.77957C10.6616 2.49045 11.0978 2.33243 11.5482 2.33332C11.9995 2.33207 12.4365 2.49133 12.7811 2.78264C13.1258 3.07395 13.3556 3.47832 13.4295 3.92349C13.6441 5.23715 14 7.65799 14 9.33332C14.0006 10.1212 13.8131 10.8979 13.4533 11.5989C13.0934 12.2999 12.5715 12.9048 11.9309 13.3636C11.5576 13.6319 11.375 13.9557 11.375 14.2327C11.375 14.2549 11.3756 14.2701 11.3767 14.2876C11.4281 14.9269 11.9583 21.5647 11.9583 22.75C11.9583 23.5235 11.651 24.2654 11.104 24.8124C10.5571 25.3594 9.8152 25.6667 9.04165 25.6667C8.2681 25.6667 7.52623 25.3594 6.97925 24.8124C6.43227 24.2654 6.12498 23.5235 6.12498 22.75C6.12498 21.5647 6.65523 14.9269 6.70598 14.2876C6.70762 14.2693 6.7084 14.251 6.70831 14.2327C6.70831 13.9557 6.52631 13.6319 6.1524 13.3636C5.51178 12.9048 4.98987 12.2999 4.63001 11.5989C4.27015 10.8979 4.08273 10.1212 4.08331 9.33332C4.08331 7.65799 4.43915 5.23715 4.65381 3.92349ZM11.0833 9.77082C11.0833 9.96421 11.0065 10.1497 10.8697 10.2864C10.733 10.4232 10.5475 10.5 10.3541 10.5C10.1608 10.5 9.97529 10.4232 9.83855 10.2864C9.7018 10.1497 9.62498 9.96421 9.62498 9.77082V4.37499C9.62498 4.22028 9.56352 4.0719 9.45413 3.96251C9.34473 3.85311 9.19636 3.79165 9.04165 3.79165C8.88694 3.79165 8.73856 3.85311 8.62917 3.96251C8.51977 4.0719 8.45831 4.22028 8.45831 4.37499V9.77082C8.45831 9.96421 8.38149 10.1497 8.24475 10.2864C8.108 10.4232 7.92253 10.5 7.72915 10.5C7.53576 10.5 7.35029 10.4232 7.21355 10.2864C7.0768 10.1497 6.99998 9.96421 6.99998 9.77082V4.25657C6.99998 4.13327 6.951 4.01501 6.86381 3.92782C6.77662 3.84064 6.65837 3.79165 6.53506 3.79165C6.30873 3.79165 6.12673 3.9509 6.0929 4.15915C5.87706 5.48157 5.54165 7.79274 5.54165 9.33332C5.54108 9.8897 5.67338 10.4382 5.92754 10.9331C6.1817 11.428 6.55038 11.8551 7.0029 12.1788C7.5979 12.6058 8.16665 13.3181 8.16665 14.2322C8.16665 14.2893 8.1649 14.343 8.16023 14.4042C8.10423 15.0967 7.58331 21.6417 7.58331 22.75C7.58331 23.1368 7.73696 23.5077 8.01045 23.7812C8.28394 24.0547 8.65487 24.2083 9.04165 24.2083C9.42842 24.2083 9.79935 24.0547 10.0728 23.7812C10.3463 23.5077 10.5 23.1368 10.5 22.75C10.5 21.6417 9.97906 15.0967 9.92365 14.4042C9.91921 14.3472 9.91688 14.29 9.91665 14.2327C9.91665 13.3181 10.4854 12.6052 11.0804 12.1788C11.5329 11.8551 11.9016 11.428 12.1558 10.9331C12.4099 10.4382 12.5422 9.8897 12.5416 9.33332C12.5416 7.79274 12.2062 5.48157 11.9904 4.15915C11.9724 4.05535 11.918 3.96135 11.837 3.89401C11.7559 3.82667 11.6536 3.79038 11.5482 3.79165C11.4249 3.79165 11.3067 3.84064 11.2195 3.92782C11.1323 4.01501 11.0833 4.13327 11.0833 4.25657V9.77082ZM21.2916 3.81032V13.2708C21.2916 13.615 21.4013 15.2133 21.5221 16.9662L21.5302 17.0852C21.6936 19.4571 21.875 22.1031 21.875 22.75C21.875 23.1368 21.7213 23.5077 21.4478 23.7812C21.1744 24.0547 20.8034 24.2083 20.4166 24.2083C20.0299 24.2083 19.6589 24.0547 19.3854 23.7812C19.112 23.5077 18.9583 23.1368 18.9583 22.75C18.9583 22.1772 19.1012 19.8415 19.2482 17.605C19.3345 16.2962 19.4233 14.9876 19.5148 13.6792L19.5399 13.3222C19.5469 13.2223 19.5334 13.1221 19.5 13.0277C19.4666 12.9334 19.4142 12.8469 19.346 12.7737C19.2777 12.7005 19.1951 12.6421 19.1034 12.6022C19.0116 12.5622 18.9126 12.5416 18.8125 12.5417H17.0625C16.9464 12.5417 16.8352 12.4956 16.7531 12.4135C16.6711 12.3315 16.625 12.2202 16.625 12.1042V8.89582C16.625 7.61783 17.1043 6.38632 17.9684 5.4447C18.8325 4.50308 20.0184 3.91986 21.2916 3.81032ZM18.0308 14L17.9941 14.532C17.9392 15.3265 17.8657 16.3987 17.7934 17.5093C17.6487 19.7108 17.5 22.1147 17.5 22.75C17.5 23.5235 17.8073 24.2654 18.3543 24.8124C18.9012 25.3594 19.6431 25.6667 20.4166 25.6667C21.1902 25.6667 21.9321 25.3594 22.479 24.8124C23.026 24.2654 23.3333 23.5235 23.3333 22.75C23.3333 22.0447 23.1496 19.3702 22.9903 17.0613L22.9851 16.9855C22.8579 15.1352 22.75 13.5567 22.75 13.2708V3.06249C22.75 2.65999 22.4233 2.33332 22.0208 2.33332H21.7291C18.1049 2.33332 15.1666 5.27157 15.1666 8.89582V12.1042C15.1666 12.607 15.3664 13.0892 15.7219 13.4447C16.0775 13.8002 16.5597 14 17.0625 14H18.0308Z" fill="black" fill-opacity="0.7"/>
</svg>
