<svg width="28" height="28" viewBox="0 0 28 28" fill="none" xmlns="http://www.w3.org/2000/svg">
<path d="M24.9528 8.27534C24.87 8.19632 24.7681 8.14032 24.657 8.11288C24.5459 8.08544 24.4295 8.08753 24.3195 8.11893L24.1653 8.16268C24.0226 7.53965 23.7515 6.95324 23.3693 6.44096C22.9871 5.92868 22.5021 5.5018 21.9455 5.18762C21.3889 4.87344 20.7729 4.67887 20.1368 4.61635C19.5007 4.55383 18.8585 4.62475 18.2514 4.82456C17.906 3.98067 17.3172 3.25867 16.5601 2.75049C15.803 2.24231 14.9118 1.97095 14 1.97095C13.0881 1.97095 12.1969 2.24231 11.4398 2.75049C10.6827 3.25867 10.094 3.98067 9.74858 4.82456C9.14145 4.62475 8.49931 4.55383 7.86321 4.61635C7.22711 4.67887 6.61106 4.87344 6.05445 5.18762C5.49783 5.5018 5.01291 5.92868 4.63068 6.44096C4.24846 6.95324 3.97734 7.53965 3.83467 8.16268L3.68045 8.11893C3.57048 8.0875 3.4542 8.08536 3.34314 8.11272C3.23208 8.14008 3.1301 8.196 3.04731 8.27492C2.96453 8.35384 2.9038 8.45302 2.87116 8.56265C2.83852 8.67227 2.8351 8.78852 2.86123 8.89987L6.20264 23.1011C6.28177 23.4371 6.47207 23.7364 6.74267 23.9506C7.01327 24.1648 7.34829 24.2813 7.69342 24.2813H20.3065C20.6517 24.2813 20.9867 24.1648 21.2573 23.9506C21.5279 23.7364 21.7182 23.4371 21.7973 23.1011L25.1387 8.89987C25.1648 8.78859 25.1614 8.67244 25.1288 8.5629C25.0961 8.45336 25.0355 8.35423 24.9528 8.27534ZM8.31248 5.90628C8.84661 5.90499 9.37271 6.03614 9.84373 6.288C9.93307 6.3356 10.0322 6.36189 10.1334 6.36481C10.2346 6.36773 10.3351 6.34721 10.427 6.30484C10.5189 6.26248 10.5998 6.19942 10.6633 6.1206C10.7268 6.04178 10.7713 5.94933 10.7931 5.8505C10.9556 5.12232 11.3614 4.47125 11.9435 4.00466C12.5257 3.53807 13.2495 3.28381 13.9956 3.28381C14.7417 3.28381 15.4655 3.53807 16.0477 4.00466C16.6299 4.47125 17.0356 5.12232 17.1981 5.8505C17.22 5.94918 17.2644 6.04147 17.3279 6.12017C17.3913 6.19887 17.4721 6.26185 17.5639 6.3042C17.6556 6.34655 17.756 6.36712 17.857 6.36431C17.9581 6.3615 18.0571 6.33538 18.1464 6.288C18.6204 6.03482 19.1501 5.90363 19.6875 5.90628C20.4428 5.90606 21.1751 6.16645 21.7607 6.64347C22.3463 7.1205 22.7494 7.78496 22.902 8.52471L18.41 9.80768L14.5687 8.27643C14.2036 8.13037 13.7963 8.13037 13.4312 8.27643L9.58998 9.80768L5.09795 8.52471C5.25053 7.78496 5.65364 7.1205 6.23927 6.64347C6.82489 6.16645 7.55716 5.90606 8.31248 5.90628ZM17.6575 10.92L16.0508 22.9688H11.9492L10.3425 10.92L13.919 9.4894C13.971 9.4687 14.0289 9.4687 14.0809 9.4894L17.6575 10.92ZM7.48561 22.8003L4.39467 9.68846L9.03108 11.013L10.6258 22.9688H7.69342C7.64408 22.9689 7.59617 22.9523 7.55745 22.9217C7.51873 22.8911 7.49149 22.8484 7.48014 22.8003H7.48561ZM20.5253 22.8003C20.5137 22.8493 20.4857 22.8927 20.4459 22.9234C20.406 22.9541 20.3568 22.9701 20.3065 22.9688H17.3742L18.9689 11.013L23.6053 9.68846L20.5253 22.8003Z" fill="black" fill-opacity="0.7"/>
</svg>
