<svg width="28" height="28" viewBox="0 0 28 28" fill="none" xmlns="http://www.w3.org/2000/svg">
<g clip-path="url(#clip0_49_96)">
<path fill-rule="evenodd" clip-rule="evenodd" d="M14 20.5333C8.9656 20.5333 4.72267 17.9611 2.04587 14C4.72267 10.0389 8.9656 7.46667 14 7.46667C19.0344 7.46667 23.2773 10.0389 25.9541 14C23.2773 17.9611 19.0344 20.5333 14 20.5333ZM14 5.6C8.0416 5.6 3.0912 8.78453 0.141869 13.5053C0.0491584 13.6537 0 13.8251 0 14C0 14.1749 0.0491584 14.3463 0.141869 14.4947C3.0912 19.2155 8.0416 22.4 14 22.4C19.9584 22.4 24.9088 19.2155 27.8581 14.4947C27.9508 14.3463 28 14.1749 28 14C28 13.8251 27.9508 13.6537 27.8581 13.5053C24.9088 8.78453 19.9584 5.6 14 5.6ZM14 17.7333C14.9901 17.7333 15.9397 17.34 16.6399 16.6399C17.34 15.9397 17.7333 14.9901 17.7333 14C17.7333 13.0099 17.34 12.0603 16.6399 11.3601C15.9397 10.66 14.9901 10.2667 14 10.2667C13.0099 10.2667 12.0603 10.66 11.3601 11.3601C10.66 12.0603 10.2667 13.0099 10.2667 14C10.2667 14.9901 10.66 15.9397 11.3601 16.6399C12.0603 17.34 13.0099 17.7333 14 17.7333Z" fill="black"/>
</g>
<defs>
<clipPath id="clip0_49_96">
<rect width="28" height="28" fill="white"/>
</clipPath>
</defs>
</svg>
