<svg width="35" height="32" viewBox="0 0 35 32" fill="none" xmlns="http://www.w3.org/2000/svg">
<path d="M27 5.68C26.2244 5.68 25.5606 5.40389 25.0083 4.85167C24.4561 4.29944 24.18 3.63556 24.18 2.86C24.18 2.08444 24.4561 1.42 25.0083 0.866667C25.5606 0.313333 26.2244 0.0372223 27 0.0383334C27.7756 0.0394445 28.4394 0.315556 28.9917 0.866667C29.5439 1.41778 29.82 2.08222 29.82 2.86C29.82 3.63556 29.5439 4.29944 28.9917 4.85167C28.4394 5.40389 27.7756 5.68 27 5.68ZM24.8833 31.8333V18.8833C24.8833 17.9133 24.6633 17.0394 24.2233 16.2617C23.7822 15.4839 23.1278 14.8672 22.26 14.4117L24.0067 9.83C24.2289 9.22111 24.6172 8.72944 25.1717 8.355C25.7261 7.98056 26.3356 7.79444 27 7.79667C27.6644 7.79889 28.2739 7.98056 28.8283 8.34167C29.3828 8.70278 29.7717 9.19944 29.995 9.83167L34.5 21.6433H30.0767V31.8333H24.8833ZM17.83 15.0383C17.2233 15.0383 16.7089 14.8261 16.2867 14.4017C15.8644 13.9772 15.6533 13.4617 15.6533 12.855C15.6533 12.2483 15.8661 11.7344 16.2917 11.3133C16.7172 10.8922 17.2322 10.6811 17.8367 10.68C18.4411 10.6789 18.9556 10.8911 19.38 11.3167C19.8044 11.7422 20.0156 12.2578 20.0133 12.8633C20.0111 13.4689 19.7989 13.9828 19.3767 14.405C18.9511 14.8272 18.4356 15.0383 17.83 15.0383ZM6.16667 5.68C5.39111 5.68 4.72722 5.40389 4.175 4.85167C3.62278 4.29944 3.34667 3.63556 3.34667 2.86C3.34667 2.08444 3.62278 1.42 4.175 0.866667C4.72722 0.313333 5.39111 0.0372223 6.16667 0.0383334C6.94222 0.0394445 7.60611 0.315556 8.15833 0.866667C8.71056 1.41778 8.98667 2.08222 8.98667 2.86C8.98667 3.63556 8.71056 4.29944 8.15833 4.85167C7.60611 5.40389 6.94222 5.68 6.16667 5.68ZM3.21667 31.8333V20.8717H0.463333V11.065C0.463333 10.3239 0.727222 9.69 1.255 9.16333C1.78278 8.63667 2.41611 8.37278 3.155 8.37167H9.18167C9.92167 8.37167 10.555 8.63556 11.0817 9.16333C11.6083 9.69111 11.8722 10.3244 11.8733 11.0633V20.8717H9.115V31.8333H3.21667ZM15.7833 31.8333V26H14.1167V18.8833C14.1167 18.3144 14.3156 17.8306 14.7133 17.4317C15.1111 17.0328 15.5956 16.8333 16.1667 16.8333H19.5C20.07 16.8333 20.5544 17.0328 20.9533 17.4317C21.3522 17.8306 21.5517 18.315 21.5517 18.885V26H19.885V31.8333H15.7833Z" fill="#CDC9C9"/>
</svg>
