<svg width="18" height="19" viewBox="0 0 18 19" fill="none" xmlns="http://www.w3.org/2000/svg">
<g clip-path="url(#clip0_542_99)">
<path d="M9 11.75C10.2426 11.75 11.25 10.7426 11.25 9.5C11.25 8.25736 10.2426 7.25 9 7.25C7.75736 7.25 6.75 8.25736 6.75 9.5C6.75 10.7426 7.75736 11.75 9 11.75Z" stroke="#85847D" stroke-width="2" stroke-linecap="round" stroke-linejoin="round"/>
<path d="M16.875 5H1.125V14H16.875V5Z" stroke="#85847D" stroke-width="2" stroke-linecap="round" stroke-linejoin="round"/>
<path d="M16.875 7.8125C16.1724 7.69341 15.5242 7.35871 15.0202 6.85478C14.5163 6.35085 14.1816 5.70264 14.0625 5" stroke="#85847D" stroke-width="2" stroke-linecap="round" stroke-linejoin="round"/>
<path d="M14.0625 14C14.1816 13.2974 14.5163 12.6492 15.0202 12.1452C15.5242 11.6413 16.1724 11.3066 16.875 11.1875" stroke="#85847D" stroke-width="2" stroke-linecap="round" stroke-linejoin="round"/>
<path d="M1.125 11.1875C1.82764 11.3066 2.47585 11.6413 2.97978 12.1452C3.48371 12.6492 3.81841 13.2974 3.9375 14" stroke="#85847D" stroke-width="2" stroke-linecap="round" stroke-linejoin="round"/>
<path d="M3.9375 5C3.81841 5.70264 3.48371 6.35085 2.97978 6.85478C2.47585 7.35871 1.82764 7.69341 1.125 7.8125" stroke="#85847D" stroke-width="2" stroke-linecap="round" stroke-linejoin="round"/>
</g>
<defs>
<clipPath id="clip0_542_99">
<rect width="18" height="18" fill="white" transform="translate(0 0.5)"/>
</clipPath>
</defs>
</svg>
