<svg width="28" height="28" viewBox="0 0 28 28" fill="none" xmlns="http://www.w3.org/2000/svg">
<path d="M14 3.0625C11.8368 3.0625 9.72212 3.70397 7.92346 4.9058C6.12479 6.10763 4.72291 7.81583 3.89507 9.8144C3.06724 11.813 2.85064 14.0121 3.27267 16.1338C3.69469 18.2555 4.73639 20.2043 6.26602 21.734C7.79566 23.2636 9.74454 24.3053 11.8662 24.7273C13.9879 25.1494 16.187 24.9328 18.1856 24.1049C20.1842 23.2771 21.8924 21.8752 23.0942 20.0765C24.296 18.2779 24.9375 16.1632 24.9375 14C24.9343 11.1002 23.781 8.32003 21.7305 6.26954C19.68 4.21905 16.8998 3.06568 14 3.0625ZM18.4702 19.1866L17.1916 17.4267L18.7173 12.9817L20.7878 12.3091L24.0308 14.7962C23.9094 16.3497 23.4263 17.8532 22.6198 19.1866H18.4702ZM9.52985 19.1866H5.38016C4.57376 17.8532 4.09056 16.3497 3.96922 14.7962L7.21219 12.3091L9.28266 12.9817L10.8084 17.4267L9.52985 19.1866ZM5.6536 8.38469L6.62376 11.6572L3.9375 13.7145C3.99015 11.8107 4.58554 9.96156 5.6536 8.38469ZM11.608 17.0625L10.1467 12.8056L14 10.1555L17.8533 12.8056L16.392 17.0625H11.608ZM21.3763 11.6572L22.3464 8.38469C23.4145 9.96156 24.0099 11.8107 24.0625 13.7145L21.3763 11.6572ZM21.6902 7.51844L20.5177 11.4767L18.4395 12.1505L14.4375 9.39531V7.22969L18.0119 4.77312C19.4322 5.39415 20.6907 6.33345 21.6902 7.51844ZM17.0122 4.39797L14 6.46953L10.9878 4.39797C12.949 3.78413 15.051 3.78413 17.0122 4.39797ZM9.98813 4.77312L13.5625 7.22969V9.39531L9.55501 12.1505L7.47688 11.4767L6.30985 7.51844C7.30927 6.33345 8.56779 5.39415 9.98813 4.77312ZM5.97297 20.0616H9.44344L10.6575 23.4916C8.7943 22.8307 7.16565 21.6382 5.97297 20.0616ZM11.6933 23.7956L10.2419 19.6941L11.5194 17.9375H16.4806L17.7581 19.6941L16.3067 23.7956C14.7895 24.1513 13.2105 24.1513 11.6933 23.7956ZM17.3425 23.4916L18.5566 20.0616H22.027C20.8344 21.6382 19.2057 22.8307 17.3425 23.4916Z" fill="black" fill-opacity="0.7"/>
</svg>
