<svg width="28" height="28" viewBox="0 0 28 28" fill="none" xmlns="http://www.w3.org/2000/svg">
<path d="M3.5 5.83333C3.5 5.21449 3.74583 4.621 4.18342 4.18342C4.621 3.74583 5.21449 3.5 5.83333 3.5H22.1667C22.7855 3.5 23.379 3.74583 23.8166 4.18342C24.2542 4.621 24.5 5.21449 24.5 5.83333V22.1667C24.5 22.7855 24.2542 23.379 23.8166 23.8166C23.379 24.2542 22.7855 24.5 22.1667 24.5H5.83333C5.21449 24.5 4.621 24.2542 4.18342 23.8166C3.74583 23.379 3.5 22.7855 3.5 22.1667V5.83333Z" stroke="black" stroke-opacity="0.7" stroke-width="2" stroke-linecap="round" stroke-linejoin="round"/>
<path d="M9.91665 9.33329C10.2388 9.33329 10.5 9.07213 10.5 8.74996C10.5 8.42779 10.2388 8.16663 9.91665 8.16663C9.59448 8.16663 9.33331 8.42779 9.33331 8.74996C9.33331 9.07213 9.59448 9.33329 9.91665 9.33329Z" fill="black" fill-opacity="0.7" stroke="black" stroke-opacity="0.7" stroke-width="2" stroke-linecap="round" stroke-linejoin="round"/>
<path d="M18.0833 9.33329C18.4055 9.33329 18.6667 9.07213 18.6667 8.74996C18.6667 8.42779 18.4055 8.16663 18.0833 8.16663C17.7612 8.16663 17.5 8.42779 17.5 8.74996C17.5 9.07213 17.7612 9.33329 18.0833 9.33329Z" fill="black" fill-opacity="0.7" stroke="black" stroke-opacity="0.7" stroke-width="2" stroke-linecap="round" stroke-linejoin="round"/>
<path d="M9.91665 14.5833C10.2388 14.5833 10.5 14.3221 10.5 14C10.5 13.6778 10.2388 13.4166 9.91665 13.4166C9.59448 13.4166 9.33331 13.6778 9.33331 14C9.33331 14.3221 9.59448 14.5833 9.91665 14.5833Z" fill="black" fill-opacity="0.7" stroke="black" stroke-opacity="0.7" stroke-width="2" stroke-linecap="round" stroke-linejoin="round"/>
<path d="M18.0833 14.5833C18.4055 14.5833 18.6667 14.3221 18.6667 14C18.6667 13.6778 18.4055 13.4166 18.0833 13.4166C17.7612 13.4166 17.5 13.6778 17.5 14C17.5 14.3221 17.7612 14.5833 18.0833 14.5833Z" fill="black" fill-opacity="0.7" stroke="black" stroke-opacity="0.7" stroke-width="2" stroke-linecap="round" stroke-linejoin="round"/>
<path d="M18.0833 19.8333C18.4055 19.8333 18.6667 19.5721 18.6667 19.25C18.6667 18.9278 18.4055 18.6666 18.0833 18.6666C17.7612 18.6666 17.5 18.9278 17.5 19.25C17.5 19.5721 17.7612 19.8333 18.0833 19.8333Z" fill="black" fill-opacity="0.7" stroke="black" stroke-opacity="0.7" stroke-width="2" stroke-linecap="round" stroke-linejoin="round"/>
<path d="M9.91665 19.8333C10.2388 19.8333 10.5 19.5721 10.5 19.25C10.5 18.9278 10.2388 18.6666 9.91665 18.6666C9.59448 18.6666 9.33331 18.9278 9.33331 19.25C9.33331 19.5721 9.59448 19.8333 9.91665 19.8333Z" fill="black" fill-opacity="0.7" stroke="black" stroke-opacity="0.7" stroke-width="2" stroke-linecap="round" stroke-linejoin="round"/>
</svg>
