<svg width="28" height="28" viewBox="0 0 28 28" fill="none" xmlns="http://www.w3.org/2000/svg">
<path d="M14 4.66667C12.917 4.66667 11.8784 5.09687 11.1126 5.86265C10.3469 6.62842 9.91667 7.66703 9.91667 8.75C9.91667 9.83297 10.3469 10.8716 11.1126 11.6374C11.8784 12.4031 12.917 12.8333 14 12.8333C15.083 12.8333 16.1216 12.4031 16.8874 11.6374C17.6531 10.8716 18.0833 9.83297 18.0833 8.75C18.0833 7.66703 17.6531 6.62842 16.8874 5.86265C16.1216 5.09687 15.083 4.66667 14 4.66667ZM7.58333 8.75C7.58333 7.04819 8.25937 5.41609 9.46273 4.21273C10.6661 3.00937 12.2982 2.33333 14 2.33333C15.7018 2.33333 17.3339 3.00937 18.5373 4.21273C19.7406 5.41609 20.4167 7.04819 20.4167 8.75C20.4167 10.4518 19.7406 12.0839 18.5373 13.2873C17.3339 14.4906 15.7018 15.1667 14 15.1667C12.2982 15.1667 10.6661 14.4906 9.46273 13.2873C8.25937 12.0839 7.58333 10.4518 7.58333 8.75ZM3.5 22.1667C3.5 20.6196 4.11458 19.1358 5.20854 18.0419C6.30251 16.9479 7.78624 16.3333 9.33333 16.3333H18.6667C20.2138 16.3333 21.6975 16.9479 22.7915 18.0419C23.8854 19.1358 24.5 20.6196 24.5 22.1667V25.6667H3.5V22.1667ZM9.33333 18.6667C8.40508 18.6667 7.51484 19.0354 6.85846 19.6918C6.20208 20.3482 5.83333 21.2384 5.83333 22.1667V23.3333H22.1667V22.1667C22.1667 21.2384 21.7979 20.3482 21.1415 19.6918C20.4852 19.0354 19.5949 18.6667 18.6667 18.6667H9.33333Z" fill="black"/>
</svg>
